<svg width="132" height="91" viewBox="0 0 132 91" fill="none" xmlns="http://www.w3.org/2000/svg">
<g clip-path="url(#clip0_52_2952)">
<path d="M21.6839 27.569C19.6219 21.9116 13.3574 18.9946 7.6919 21.0538C2.0264 23.1129 -0.894763 29.3684 1.16731 35.0258L15.81 75.1986C17.8721 80.856 24.1365 83.773 29.802 81.7139C35.4675 79.6548 38.3887 73.3993 36.3266 67.7419L21.6839 27.569Z" fill="#3D4EEA"/>
<path d="M49.3583 7.96421C47.2962 2.30681 41.0317 -0.610167 35.3662 1.44896C29.7007 3.50808 26.7796 9.76356 28.8416 15.421L53.7764 83.8306C55.8385 89.488 62.1029 92.405 67.7684 90.3458C73.4339 88.2867 76.3551 82.0312 74.293 76.3738L49.3583 7.96421Z" fill="#3D4EEA"/>
<path d="M83.9242 7.17155C81.8621 1.51415 75.5976 -1.40283 69.9321 0.656292C64.2666 2.71542 61.3455 8.9709 63.4075 14.6283L85.0047 73.881C87.0668 79.5384 93.3312 82.4554 98.9967 80.3963C104.662 78.3371 107.583 72.0817 105.521 66.4243L83.9242 7.17155Z" fill="#3D4EEA"/>
<path d="M119.916 10.3757C117.854 4.71825 111.59 1.80127 105.924 3.8604C100.259 5.91952 97.3377 12.175 99.3997 17.8324L107.276 39.442C109.338 45.0994 115.603 48.0164 121.268 45.9573C126.934 43.8981 129.855 37.6427 127.793 31.9853L119.916 10.3757Z" fill="#8B95F2"/>
</g>
<defs>
<clipPath id="clip0_52_2952">
<rect width="131" height="91" fill="white" transform="translate(0.5)"/>
</clipPath>
</defs>
</svg>
