<svg width="20" height="20" viewBox="0 0 20 20" fill="none" xmlns="http://www.w3.org/2000/svg">
<g id="star-small">
<g id="star">
<path id="stroke" d="M11.187 3.25095L12.5236 5.83756C12.6906 6.25475 13.1083 6.50507 13.526 6.58851L16.3661 7.0057C17.452 7.17258 17.8697 8.50761 17.1179 9.25856L15.0296 11.1777C14.6954 11.5114 14.5284 11.9286 14.6119 12.3458L15.1131 15.0993C15.2802 16.184 14.1942 17.0184 13.1918 16.5177L10.6023 15.1827C10.1846 15.0158 9.76696 15.0158 9.3493 15.1827L6.75976 16.5177C5.75736 17.0184 4.67143 16.184 4.8385 15.0993L5.3397 12.3458C5.42323 11.9286 5.25616 11.428 4.92203 11.1777L2.91723 9.17512C2.08189 8.42417 2.58309 7.08914 3.66903 6.92227L6.50916 6.50507C6.92683 6.42163 7.3445 6.17131 7.51156 5.83756L8.76456 3.25095C9.3493 2.24968 10.6858 2.24968 11.187 3.25095Z" fill="#3D4EEA"/>
</g>
</g>
</svg>
